<svg width="24" height="24" viewBox="0 0 24 24" fill="none" xmlns="http://www.w3.org/2000/svg">
<path d="M17.8677 19.6849C17.7807 19.6849 17.6972 19.7194 17.6357 19.781C17.5741 19.8425 17.5396 19.926 17.5396 20.013C17.5396 20.1 17.5741 20.1835 17.6357 20.245C17.6972 20.3066 17.7807 20.3411 17.8677 20.3411C18.0737 20.3414 18.2712 20.4233 18.4168 20.569C18.5625 20.7146 18.6444 20.9121 18.6447 21.1181C18.6447 21.2052 18.6792 21.2886 18.7408 21.3501C18.8023 21.4117 18.8858 21.4463 18.9728 21.4463C19.0598 21.4463 19.1433 21.4117 19.2048 21.3501C19.2664 21.2886 19.3009 21.2052 19.3009 21.1181C19.3005 20.7381 19.1493 20.3738 18.8806 20.1052C18.612 19.8365 18.2477 19.6853 17.8677 19.6849Z" fill="#84BE51"/>
<path fill-rule="evenodd" clip-rule="evenodd" d="M17.8675 19.6849C18.2475 19.6853 18.6118 19.8365 18.8804 20.1051C19.1491 20.3738 19.3003 20.7381 19.3007 21.1181C19.3007 21.2051 19.2662 21.2886 19.2046 21.3501C19.1431 21.4117 19.0596 21.4462 18.9726 21.4462C18.8856 21.4462 18.8021 21.4117 18.7406 21.3501C18.6791 21.2886 18.6445 21.2051 18.6445 21.1181C18.6442 20.9121 18.5623 20.7146 18.4166 20.569C18.271 20.4233 18.0735 20.3414 17.8675 20.3411L17.8672 20.5411C17.7273 20.541 17.593 20.4854 17.494 20.3864C17.395 20.2874 17.3394 20.1531 17.3394 20.013C17.3394 19.8729 17.395 19.7386 17.494 19.6395C17.5931 19.5405 17.7274 19.4849 17.8675 19.4849V19.6849L17.8677 19.4849C18.3007 19.4854 18.7157 19.6576 19.0219 19.9637C19.328 20.2699 19.5002 20.6849 19.5007 21.1179L19.5007 21.1181C19.5007 21.2582 19.4451 21.3925 19.346 21.4916C19.247 21.5906 19.1127 21.6462 18.9726 21.6462C18.8325 21.6462 18.6982 21.5906 18.5992 21.4916C18.5001 21.3925 18.4445 21.2582 18.4445 21.1181H18.6444L18.4445 21.1184C18.4443 20.9653 18.3834 20.8186 18.2752 20.7104C18.167 20.6022 18.0203 20.5413 17.8672 20.5411" fill="#84BE51"/>
<path d="M15.9576 18.1416C15.5738 18.1421 15.2057 18.2948 14.9343 18.5663C14.6629 18.8378 14.5102 19.2058 14.5098 19.5897C14.5098 19.6767 14.5443 19.7601 14.6059 19.8217C14.6674 19.8832 14.7509 19.9178 14.8379 19.9178C14.9249 19.9178 15.0084 19.8832 15.0699 19.8217C15.1314 19.7601 15.166 19.6767 15.166 19.5897C15.1662 19.3798 15.2497 19.1785 15.3981 19.0301C15.5465 18.8816 15.7477 18.7981 15.9576 18.7979C16.0447 18.7979 16.1281 18.7633 16.1897 18.7017C16.2512 18.6402 16.2858 18.5568 16.2858 18.4697C16.2858 18.3827 16.2512 18.2992 16.1897 18.2377C16.1281 18.1762 16.0447 18.1416 15.9576 18.1416Z" fill="#84BE51"/>
<path fill-rule="evenodd" clip-rule="evenodd" d="M14.3096 19.5897V19.5894C14.3101 19.1526 14.4838 18.7338 14.7927 18.4249C15.1016 18.116 15.5203 17.9422 15.9572 17.9416L15.9574 18.1416C15.5736 18.1421 15.2056 18.2948 14.9341 18.5663C14.6627 18.8377 14.51 19.2058 14.5096 19.5897C14.5096 19.6767 14.5441 19.7601 14.6057 19.8217C14.6672 19.8832 14.7507 19.9178 14.8377 19.9178C14.9247 19.9178 15.0082 19.8832 15.0697 19.8217C15.1312 19.7601 15.1658 19.6767 15.1658 19.5897C15.166 19.3797 15.2495 19.1785 15.3979 19.03C15.5463 18.8816 15.7475 18.7981 15.9574 18.7978C16.0445 18.7978 16.1279 18.7633 16.1895 18.7017C16.251 18.6402 16.2856 18.5567 16.2856 18.4697C16.2856 18.3827 16.251 18.2992 16.1895 18.2377C16.1279 18.1762 16.0445 18.1416 15.9574 18.1416M15.3658 19.5898C15.3658 19.7298 15.3101 19.8641 15.2111 19.9631C15.1121 20.0621 14.9778 20.1178 14.8377 20.1178C14.6976 20.1178 14.5633 20.0621 14.4643 19.9631C14.3652 19.864 14.3096 19.7297 14.3096 19.5897" fill="#84BE51"/>
<path d="M9.11085 14.5975V15.3494C9.11085 15.4364 9.14542 15.5198 9.20696 15.5814C9.26849 15.6429 9.35195 15.6775 9.43898 15.6775C9.526 15.6775 9.60946 15.6429 9.671 15.5814C9.73253 15.5198 9.7671 15.4364 9.7671 15.3494V14.5975C10.3927 14.5173 10.9677 14.2122 11.3848 13.7391C11.8018 13.2659 12.0324 12.6572 12.0334 12.0265C12.0334 11.9395 11.9988 11.856 11.9373 11.7945C11.8758 11.7329 11.7923 11.6984 11.7053 11.6984C11.3386 11.6986 10.9762 11.7768 10.6421 11.9277C10.308 12.0787 10.0097 12.2989 9.7671 12.5738V11.9813C10.2104 11.4882 10.4476 10.8437 10.4298 10.1809C10.4119 9.51804 10.1403 8.88731 9.6711 8.41879C9.60954 8.3573 9.52608 8.32275 9.43907 8.32275C9.35206 8.32275 9.2686 8.3573 9.20704 8.41879C8.73923 8.88808 8.46865 9.51854 8.45077 10.1809C8.43288 10.8433 8.66905 11.4874 9.11085 11.9813V12.5738C8.86836 12.2988 8.57015 12.0785 8.23602 11.9276C7.9019 11.7767 7.53949 11.6985 7.17285 11.6984C7.08583 11.6984 7.00237 11.7329 6.94083 11.7945C6.8793 11.856 6.84473 11.9395 6.84473 12.0265C6.84575 12.6571 7.0763 13.2659 7.49332 13.739C7.91033 14.2121 8.4853 14.5173 9.11085 14.5975ZM11.3434 12.3884C11.2703 12.7704 11.0842 13.1216 10.8092 13.3967C10.5342 13.6718 10.183 13.858 9.80104 13.9313C9.87419 13.5493 10.0603 13.198 10.3353 12.923C10.6102 12.6479 10.9614 12.4616 11.3434 12.3884ZM9.43935 9.16336C9.65792 9.4851 9.77477 9.86509 9.77477 10.254C9.77477 10.643 9.65792 11.023 9.43935 11.3447C9.22085 11.0228 9.10402 10.6427 9.10399 10.2536C9.10395 9.86452 9.22072 9.48439 9.43916 9.16242L9.43935 9.16336ZM9.0771 13.9313C8.69526 13.858 8.34418 13.6719 8.06925 13.397C7.79433 13.122 7.60819 12.7709 7.53491 12.3891C7.91675 12.4624 8.26783 12.6485 8.54276 12.9234C8.81769 13.1984 9.00382 13.5495 9.0771 13.9313Z" fill="#84BE51"/>
<path fill-rule="evenodd" clip-rule="evenodd" d="M12.0337 12.0265C12.0327 12.6572 11.8021 13.2659 11.385 13.739C10.968 14.2122 10.393 14.5173 9.76739 14.5975V15.3493C9.76739 15.4364 9.73282 15.5198 9.67129 15.5814C9.60975 15.6429 9.52629 15.6775 9.43927 15.6775C9.35224 15.6775 9.26879 15.6429 9.20725 15.5814C9.14571 15.5198 9.11114 15.4364 9.11114 15.3493V14.5975C8.4856 14.5173 7.91063 14.2121 7.49361 13.739C7.0766 13.2659 6.84605 12.6571 6.84502 12.0265C6.84502 11.9394 6.87959 11.856 6.94112 11.7944C7.00266 11.7329 7.08612 11.6983 7.17314 11.6983M9.11114 12.2842V12.5738C9.04812 12.5023 8.98134 12.4345 8.91114 12.3707V12.108C8.98051 12.1635 9.04726 12.2223 9.11114 12.2842ZM8.91114 12.0561C8.46813 11.5323 8.23257 10.863 8.25113 10.1755C8.2704 9.46208 8.56183 8.78304 9.06569 8.27758C9.16475 8.17863 9.29934 8.12274 9.43936 8.12274C9.57938 8.12274 9.71368 8.17833 9.81274 8.27729C10.3182 8.782 10.6107 9.46144 10.63 10.1755C10.6485 10.8636 10.4119 11.5332 9.96739 12.0563V12.1082C10.1486 11.9634 10.3476 11.8414 10.5601 11.7455C10.92 11.5829 11.3104 11.4986 11.7054 11.4983C11.8455 11.4983 11.98 11.554 12.079 11.653C12.1781 11.7521 12.2337 11.8864 12.2337 12.0265C12.2326 12.7057 11.9843 13.3617 11.5351 13.8713C11.125 14.3365 10.5731 14.6509 9.96739 14.7678V15.3493C9.96739 15.4894 9.91175 15.6237 9.81271 15.7228C9.71367 15.8218 9.57934 15.8775 9.43927 15.8775C9.2992 15.8775 9.16487 15.8218 9.06583 15.7228C8.96679 15.6237 8.91114 15.4894 8.91114 15.3493V14.7678C8.30549 14.6509 7.75363 14.3365 7.34357 13.8712C6.89444 13.3617 6.64613 12.706 6.64502 12.0268C6.64502 11.8867 6.70066 11.7521 6.7997 11.653C6.89875 11.554 7.03308 11.4983 7.17314 11.4983C7.56814 11.4985 7.95868 11.5827 8.31865 11.7453C8.53109 11.8413 8.73005 11.9633 8.91114 12.108V12.0561ZM9.11114 11.9813H8.91114V12.0561C8.92783 12.0758 8.94481 12.0953 8.96209 12.1146L9.11114 11.9813ZM9.96739 12.3708C10.1674 12.1891 10.3951 12.0394 10.6424 11.9277C10.9765 11.7768 11.3389 11.6986 11.7056 11.6983C11.7926 11.6983 11.8761 11.7329 11.9376 11.7944C11.9991 11.856 12.0337 11.9394 12.0337 12.0265M9.96739 12.3708C9.8972 12.4346 9.83042 12.5024 9.76739 12.5738V11.9813C10.2107 11.4882 10.4479 10.8437 10.43 10.1809C10.4122 9.51803 10.1406 8.8873 9.67139 8.41878C9.60983 8.35729 9.52638 8.32274 9.43936 8.32274C9.35235 8.32274 9.26889 8.35729 9.20733 8.41878M11.127 12.443C11.1979 12.4207 11.2702 12.4024 11.3437 12.3883C11.3296 12.4618 11.3114 12.5342 11.2891 12.6051C11.1957 12.9027 11.0315 13.1745 10.8095 13.3967C10.5874 13.6188 10.3156 13.783 10.018 13.8766C9.94716 13.8989 9.87481 13.9172 9.80133 13.9313C9.8154 13.8578 9.83366 13.7854 9.85592 13.7146C9.94938 13.4169 10.1135 13.1451 10.3356 12.9229C10.5576 12.7008 10.8294 12.5366 11.127 12.443ZM11.0481 12.684C10.8355 12.7713 10.6411 12.9002 10.477 13.0643C10.3129 13.2285 10.1841 13.4229 10.0969 13.6356C10.3095 13.5484 10.5039 13.4195 10.668 13.2553C10.8321 13.0911 10.961 12.8967 11.0481 12.684ZM9.43946 9.16241C9.4392 9.16278 9.43895 9.16316 9.43869 9.16353C9.4385 9.16382 9.43831 9.1641 9.43812 9.16438C9.39658 9.22576 9.35874 9.28926 9.32469 9.35451C9.18038 9.6311 9.10425 9.93943 9.10428 10.2536C9.10431 10.5679 9.18055 10.8763 9.32503 11.153C9.35941 11.2188 9.39765 11.2828 9.43964 11.3447C9.48167 11.2829 9.51993 11.2188 9.55433 11.153C9.69883 10.8765 9.77507 10.5682 9.77507 10.254C9.77507 9.93961 9.69871 9.63106 9.55399 9.35439C9.51968 9.2888 9.48134 9.22407 9.43946 9.16241ZM9.43945 9.58037C9.35065 9.79254 9.30426 10.0213 9.30428 10.2536C9.3043 10.486 9.35078 10.7148 9.43971 10.9271C9.52861 10.715 9.57507 10.4863 9.57507 10.254C9.57507 10.0215 9.52852 9.79263 9.43945 9.58037ZM9.07739 13.9313C9.06329 13.8578 9.045 13.7854 9.02271 13.7145C8.92917 13.4171 8.76506 13.1454 8.54305 12.9234C8.32105 12.7014 8.04938 12.5373 7.75196 12.4438C7.68107 12.4215 7.60871 12.4032 7.53521 12.3891C7.54931 12.4626 7.5676 12.535 7.5899 12.6059C7.68343 12.9033 7.84754 13.1749 8.06955 13.3969C8.29156 13.6189 8.56322 13.7831 8.86064 13.8766C8.93153 13.8989 9.00389 13.9172 9.07739 13.9313ZM8.78163 13.6355C8.69441 13.4231 8.56563 13.2289 8.40163 13.0649C8.23763 12.9009 8.04342 12.7721 7.83097 12.6849C7.91818 12.8973 8.04697 13.0915 8.21097 13.2555C8.37497 13.4195 8.56918 13.5483 8.78163 13.6355Z" fill="#84BE51"/>
<path d="M4.39209 12C4.39205 12.9984 4.68807 13.9743 5.2427 14.8044C5.79733 15.6345 6.58567 16.2815 7.50802 16.6636C8.43038 17.0457 9.44531 17.1457 10.4245 16.9509C11.4037 16.7561 12.3031 16.2754 13.009 15.5695C13.715 14.8635 14.1957 13.9641 14.3905 12.9849C14.5852 12.0057 14.4853 10.9908 14.1032 10.0684C13.7211 9.1461 13.0741 8.35776 12.244 7.80312C11.4139 7.24849 10.4379 6.95248 9.43959 6.95251C8.10138 6.95405 6.81842 7.48634 5.87217 8.43259C4.92591 9.37885 4.39363 10.6618 4.39209 12ZM9.43959 7.60876C10.3081 7.60876 11.1571 7.86631 11.8792 8.34882C12.6014 8.83134 13.1642 9.51716 13.4966 10.3196C13.8289 11.122 13.9159 12.0049 13.7465 12.8567C13.577 13.7085 13.1588 14.491 12.5447 15.1051C11.9305 15.7192 11.1481 16.1375 10.2963 16.3069C9.44446 16.4763 8.56153 16.3894 7.75913 16.057C6.95673 15.7246 6.27092 15.1618 5.7884 14.4397C5.30588 13.7175 5.04834 12.8685 5.04834 12C5.04968 10.8358 5.51276 9.71964 6.33599 8.89641C7.15922 8.07318 8.27537 7.6101 9.43959 7.60876Z" fill="#84BE51"/>
<path fill-rule="evenodd" clip-rule="evenodd" d="M9.43916 6.7525L9.43939 6.7525C10.4773 6.75246 11.4919 7.06021 12.3549 7.63682C13.2179 8.21342 13.8906 9.033 14.2878 9.9919C14.685 10.9508 14.7889 12.0059 14.5864 13.0239C14.384 14.0419 13.8842 14.977 13.1503 15.7109C12.4163 16.4448 11.4813 16.9446 10.4633 17.1471C9.44534 17.3495 8.39019 17.2456 7.43129 16.8484C6.47239 16.4512 5.65282 15.7785 5.07621 14.9155C4.4996 14.0525 4.19186 13.0379 4.19189 12L4.39189 12C4.39186 12.9984 4.68787 13.9743 5.2425 14.8044C5.79714 15.6345 6.58548 16.2815 7.50783 16.6636C8.43018 17.0457 9.44512 17.1457 10.4243 16.9509C11.4035 16.7561 12.3029 16.2754 13.0088 15.5694C13.7148 14.8635 14.1955 13.9641 14.3903 12.9849C14.585 12.0057 14.4851 10.9908 14.103 10.0684C13.7209 9.14609 13.0739 8.35775 12.2438 7.80311C11.4137 7.24848 10.4377 6.95247 9.43939 6.9525C8.10119 6.95404 6.81823 7.48632 5.87197 8.43258C4.92572 9.37884 4.39343 10.6618 4.39189 12L4.19189 11.9998C4.19349 10.6086 4.74684 9.27487 5.73055 8.29116C6.71426 7.30745 8.04799 6.7541 9.43916 6.7525ZM9.43939 7.60875C8.27517 7.61009 7.15902 8.07317 6.33579 8.8964C5.51256 9.71963 5.04948 10.8358 5.04814 12C5.04814 12.8685 5.30569 13.7175 5.7882 14.4396C6.27072 15.1618 6.95654 15.7246 7.75894 16.057C8.56133 16.3894 9.44426 16.4763 10.2961 16.3069C11.1479 16.1374 11.9303 15.7192 12.5445 15.1051C13.1586 14.491 13.5768 13.7085 13.7463 12.8567C13.9157 12.0049 13.8287 11.1219 13.4964 10.3195C13.164 9.51715 12.6012 8.83133 11.879 8.34881C11.1569 7.86629 10.3079 7.60875 9.43939 7.60875ZM5.24814 12.0001C5.24817 12.829 5.49398 13.6393 5.9545 14.3285C6.41504 15.0178 7.06962 15.555 7.83547 15.8722C8.60132 16.1894 9.44404 16.2724 10.2571 16.1107C11.0701 15.949 11.8169 15.5498 12.4031 14.9637C12.9892 14.3775 13.3884 13.6307 13.5501 12.8177C13.7118 12.0047 13.6288 11.1619 13.3116 10.3961C12.9944 9.63023 12.4572 8.97565 11.7679 8.51511C11.0787 8.05459 10.2684 7.80878 9.43952 7.80875C8.3283 7.81006 7.26297 8.25207 6.47721 9.03782C5.69146 9.82357 5.24945 10.8889 5.24814 12.0001Z" fill="#84BE51"/>
<path d="M21.874 20.9813C21.8387 20.54 21.666 20.1208 21.3801 19.7828C21.0942 19.4448 20.7096 19.2049 20.2802 19.0969C20.2802 19.0804 20.2802 19.0639 20.2802 19.0476C20.2795 18.5183 20.0794 18.0087 19.7198 17.6203C19.3602 17.2319 18.8675 16.9933 18.3398 16.9519C18.3229 16.8782 18.3023 16.8068 18.2779 16.7363C18.4828 15.1914 18.5921 13.6354 18.6053 12.0771V11.923C18.6053 7.98134 17.6783 3.51752 17.5887 3.09546V1.18259C17.5887 1.09556 17.5541 1.0121 17.4926 0.950567C17.431 0.889032 17.3476 0.854462 17.2606 0.854462H2.19924C2.15615 0.854437 2.11347 0.862907 2.07365 0.879389C2.03382 0.89587 1.99764 0.920038 1.96717 0.950512C1.93669 0.980986 1.91253 1.01717 1.89604 1.05699C1.87956 1.09681 1.87109 1.13949 1.87112 1.18259V3.09509C1.7813 3.51809 0.854492 7.98152 0.854492 11.923V12.0771C0.854492 16.0185 1.7813 20.482 1.87112 20.9046V22.8171C1.87109 22.8602 1.87956 22.9029 1.89604 22.9427C1.91253 22.9825 1.93669 23.0187 1.96717 23.0492C1.99764 23.0796 2.03382 23.1038 2.07365 23.1203C2.11347 23.1368 2.15615 23.1452 2.19924 23.1452H22.8175C22.8606 23.1452 22.9033 23.1368 22.9431 23.1203C22.9829 23.1038 23.0191 23.0796 23.0496 23.0492C23.08 23.0187 23.1042 22.9825 23.1207 22.9427C23.1372 22.9029 23.1456 22.8602 23.1456 22.8171C23.1475 22.4176 23.0265 22.0272 22.799 21.6989C22.5715 21.3705 22.2486 21.12 21.874 20.9813ZM2.52737 1.51071H16.9324V2.80202H2.52737V1.51071ZM1.51074 11.923C1.51074 8.4199 2.25793 4.48577 2.46699 3.45827H16.9934C17.2015 4.48577 17.9496 8.4199 17.9496 11.923V12.0771C17.9412 13.3365 17.8651 14.5946 17.7218 15.8458C17.4337 15.5633 17.0757 15.3626 16.6844 15.2642C16.2931 15.1657 15.8826 15.1732 15.4952 15.2858C15.1077 15.3984 14.7572 15.6121 14.4796 15.9049C14.202 16.1978 14.0073 16.5592 13.9156 16.9521C13.3882 16.9941 12.896 17.2331 12.5369 17.6215C12.1778 18.0099 11.978 18.5193 11.9774 19.0483C11.9774 19.0646 11.9774 19.0811 11.9774 19.0976C11.6223 19.1874 11.2965 19.3675 11.0318 19.6205C10.767 19.8735 10.5722 20.1908 10.4665 20.5414H2.46624C2.25793 19.5139 1.50999 15.5798 1.50999 12.0767L1.51074 11.923ZM2.52737 21.198H9.96531C9.74722 21.346 9.56151 21.5368 9.41945 21.7588C9.2774 21.9808 9.18198 22.2293 9.13899 22.4893H2.52737V21.198ZM13.4091 22.4893C13.4746 22.3249 13.5879 22.1839 13.7343 22.0844C13.8807 21.985 14.0536 21.9317 14.2306 21.9313C14.3176 21.9313 14.401 21.8968 14.4626 21.8352C14.5241 21.7737 14.5587 21.6902 14.5587 21.6032C14.5587 21.5162 14.5241 21.4327 14.4626 21.3712C14.401 21.3097 14.3176 21.2751 14.2306 21.2751C13.8787 21.2756 13.5376 21.3963 13.2637 21.6171C12.9897 21.8379 12.7994 22.1456 12.7242 22.4893H9.80856C9.86803 22.2576 9.99049 22.0468 10.1624 21.8804C10.3343 21.714 10.5489 21.5984 10.7824 21.5464C10.8577 21.5293 10.9245 21.4862 10.9712 21.4247C11.0179 21.3633 11.0414 21.2873 11.0376 21.2102L11.0354 21.174C11.0354 21.162 11.0335 21.1498 11.0335 21.1376C11.0352 20.7752 11.1724 20.4265 11.4182 20.16C11.6639 19.8935 12.0004 19.7286 12.3616 19.6976C12.4073 19.694 12.4518 19.6807 12.4921 19.6588C12.5324 19.6369 12.5677 19.6067 12.5956 19.5703C12.6236 19.5339 12.6436 19.492 12.6543 19.4474C12.665 19.4027 12.6663 19.3564 12.658 19.3112C12.6415 19.2247 12.633 19.1368 12.6327 19.0487C12.6331 18.6652 12.7856 18.2976 13.0568 18.0264C13.3279 17.7552 13.6956 17.6027 14.0791 17.6023C14.1012 17.6023 14.1229 17.604 14.1447 17.6055L14.173 17.6074C14.258 17.6127 14.3417 17.5848 14.4065 17.5295C14.4712 17.4742 14.512 17.3959 14.5201 17.3111C14.5587 16.9117 14.7447 16.541 15.0418 16.2712C15.3389 16.0015 15.7258 15.852 16.1271 15.852C16.5284 15.852 16.9153 16.0015 17.2124 16.2712C17.5095 16.541 17.6955 16.9117 17.7342 17.3111C17.7422 17.3962 17.783 17.4747 17.8481 17.5301C17.9131 17.5854 17.9972 17.6131 18.0824 17.6074L18.1067 17.6057C18.1304 17.604 18.154 17.6021 18.178 17.6021C18.3904 17.6013 18.6004 17.6474 18.793 17.7372C18.9855 17.827 19.1558 17.9583 19.2916 18.1217C19.4274 18.285 19.5254 18.4764 19.5786 18.6821C19.6317 18.8878 19.6387 19.1027 19.5991 19.3114C19.5907 19.3565 19.592 19.4029 19.6027 19.4475C19.6134 19.4922 19.6334 19.534 19.6613 19.5705C19.6892 19.6069 19.7245 19.6371 19.7648 19.659C19.8051 19.6809 19.8496 19.6942 19.8953 19.6978C20.2565 19.7288 20.593 19.8937 20.8388 20.1602C21.0845 20.4266 21.2218 20.7754 21.2236 21.1378C21.2236 21.1498 21.2236 21.1615 21.2219 21.1733L21.2194 21.2108C21.2157 21.2878 21.2391 21.3638 21.2858 21.4253C21.3324 21.4867 21.3992 21.5298 21.4744 21.547C21.708 21.5989 21.9226 21.7145 22.0945 21.8809C22.2664 22.0474 22.3889 22.2581 22.4483 22.4899L13.4091 22.4893Z" fill="#84BE51"/>
<path fill-rule="evenodd" clip-rule="evenodd" d="M20.2801 19.0476V19.0969C20.7094 19.2049 21.0941 19.4448 21.3799 19.7828C21.6658 20.1208 21.8386 20.54 21.8738 20.9813C22.2484 21.12 22.5713 21.3705 22.7988 21.6988C23.0263 22.0272 23.1473 22.4176 23.1454 22.8171C23.1454 22.8602 23.137 22.9029 23.1205 22.9427C23.104 22.9825 23.0798 23.0187 23.0494 23.0492C23.0189 23.0796 22.9827 23.1038 22.9429 23.1203C22.9031 23.1368 22.8604 23.1452 22.8173 23.1452H2.19905C2.15595 23.1452 2.11327 23.1368 2.07345 23.1203C2.03363 23.1038 1.99745 23.0796 1.96697 23.0492C1.9365 23.0187 1.91233 22.9825 1.89585 22.9427C1.87937 22.9029 1.8709 22.8602 1.87092 22.8171V20.9046C1.78111 20.482 0.854297 16.0185 0.854297 12.0771V11.9229C0.854297 7.98151 1.78111 3.51807 1.87092 3.09507V1.18257C1.8709 1.13948 1.87937 1.0968 1.89585 1.05698C1.91233 1.01716 1.9365 0.980974 1.96697 0.9505C1.99745 0.920026 2.03363 0.895857 2.07345 0.879376C2.11327 0.862895 2.15595 0.854425 2.19905 0.854449H17.2604C17.3474 0.854449 17.4308 0.88902 17.4924 0.950555C17.5539 1.01209 17.5885 1.09555 17.5885 1.18257V3.09545C17.6781 3.51751 18.6051 7.98132 18.6051 11.9229V12.0771C18.5919 13.6354 18.4826 15.1914 18.2777 16.7363C18.3021 16.8068 18.3227 16.8782 18.3396 16.9519C18.8673 16.9933 19.36 17.2319 19.7196 17.6203C20.0792 18.0087 20.2793 18.5183 20.2801 19.0476ZM18.498 16.7682C19.0215 16.8423 19.5052 17.0944 19.8664 17.4844C20.2371 17.8848 20.453 18.4028 20.4777 18.9457C20.8874 19.0784 21.2532 19.3232 21.5326 19.6536C21.8185 19.9916 22.001 20.4038 22.0598 20.8408C22.4233 21.0001 22.7363 21.2574 22.9632 21.585C23.214 21.9471 23.3475 22.3775 23.3454 22.818C23.3454 22.8177 23.3454 22.8173 23.3454 22.817M22.8172 23.3452C22.8866 23.3452 22.9553 23.3316 23.0194 23.3051C23.0835 23.2785 23.1417 23.2396 23.1908 23.1906C23.2399 23.1415 23.2788 23.0833 23.3053 23.0192C23.3317 22.9554 23.3453 22.887 23.3454 22.818M18.498 16.7682C18.4929 16.7509 18.4876 16.7338 18.4821 16.7167C18.6841 15.1787 18.792 13.6299 18.8051 12.0788V11.9229C18.8051 8.01525 17.9004 3.60493 17.7885 3.07452V1.18257C17.7885 1.04251 17.7328 0.908176 17.6338 0.809134C17.5348 0.710091 17.4004 0.65445 17.2604 0.65445H2.19905C2.12969 0.654417 2.06106 0.668053 1.99697 0.694579C1.93286 0.721111 1.87461 0.760019 1.82555 0.809079C1.77649 0.858138 1.73758 0.916386 1.71105 0.980493C1.68453 1.04457 1.6709 1.11323 1.67092 1.18257C1.67092 1.18254 1.67092 1.18261 1.67092 1.18257V3.07415C1.55889 3.60526 0.654297 8.01533 0.654297 11.9229V12.0771C0.654297 15.9846 1.55885 20.3946 1.67092 20.9255L1.67092 22.817C1.67092 22.8169 1.67092 22.817 1.67092 22.817C1.6709 22.8863 1.68453 22.9551 1.71105 23.0192C1.73758 23.0833 1.77649 23.1415 1.82555 23.1906C1.87461 23.2396 1.93286 23.2785 1.99697 23.3051C2.06107 23.3316 2.12978 23.3452 2.19916 23.3452M1.71055 11.9239L1.7098 12.0767C1.7098 12.0769 1.7098 12.0765 1.7098 12.0767C1.70986 15.3975 2.38696 19.1151 2.62995 20.3414H10.3228C10.4451 20.0142 10.6399 19.7181 10.8934 19.4759C11.1458 19.2347 11.4488 19.0541 11.7795 18.9466C11.8041 18.404 12.0196 17.8862 12.3898 17.4857C12.7506 17.0956 13.2339 16.8431 13.7571 16.7685C13.8675 16.3946 14.0651 16.0513 14.3343 15.7673C14.6363 15.4488 15.0176 15.2163 15.4391 15.0938C15.8607 14.9713 16.3072 14.9631 16.7329 15.0702C17.0322 15.1455 17.3136 15.2758 17.5633 15.4533C17.6797 14.3315 17.7418 13.2046 17.7494 12.0766V11.9229C17.7494 8.60204 17.0721 4.88469 16.8292 3.65826H2.6306C2.38707 4.88434 1.71055 8.60287 1.71055 11.9239ZM2.4668 3.45826H16.9932C17.2013 4.48576 17.9494 8.41989 17.9494 11.9229V12.0771C17.9416 13.2538 17.8746 14.4293 17.749 15.5992C17.7402 15.6814 17.731 15.7636 17.7216 15.8458C17.6633 15.7887 17.6022 15.7349 17.5385 15.6846C17.2873 15.4863 16.9963 15.3426 16.6842 15.2641C16.2929 15.1657 15.8824 15.1732 15.495 15.2858C15.1075 15.3984 14.757 15.6121 14.4794 15.9049C14.2018 16.1978 14.0071 16.5592 13.9154 16.9521C13.388 16.9941 12.8958 17.2331 12.5367 17.6215C12.1776 18.0099 11.9778 18.5193 11.9772 19.0483V19.0976C11.6221 19.1874 11.2963 19.3675 11.0316 19.6205C10.7668 19.8735 10.5721 20.1908 10.4663 20.5414H2.46605C2.25773 19.5139 1.5098 15.5798 1.5098 12.0767L1.51055 11.9229C1.51055 8.41989 2.25773 4.48576 2.4668 3.45826ZM10.7822 21.5464C10.5487 21.5983 10.3341 21.7139 10.1622 21.8804C10.0413 21.9975 9.9448 22.1365 9.87752 22.2893C9.84916 22.3537 9.82599 22.4206 9.80836 22.4893H12.724C12.7992 22.1456 12.9895 21.8379 13.2635 21.6171C13.5374 21.3963 13.8785 21.2756 14.2304 21.2751C14.3174 21.2751 14.4008 21.3096 14.4624 21.3712C14.5239 21.4327 14.5585 21.5162 14.5585 21.6032C14.5585 21.6902 14.5239 21.7737 14.4624 21.8352C14.4008 21.8968 14.3174 21.9313 14.2304 21.9313C14.0534 21.9316 13.8805 21.985 13.7341 22.0844C13.6515 22.1406 13.5794 22.21 13.5205 22.2893C13.475 22.3506 13.4375 22.4177 13.4089 22.4893L22.4481 22.4899C22.4305 22.4212 22.4073 22.3543 22.379 22.2899C22.3117 22.137 22.2152 21.998 22.0943 21.8809C21.9224 21.7145 21.7078 21.5989 21.4742 21.547C21.399 21.5298 21.3322 21.4867 21.2856 21.4252C21.2389 21.3638 21.2155 21.2878 21.2192 21.2108L21.2217 21.1733C21.2234 21.1615 21.2234 21.1498 21.2234 21.1378C21.2216 20.7753 21.0843 20.4266 20.8386 20.1602C20.5928 19.8937 20.2563 19.7288 19.8951 19.6978C19.8494 19.6942 19.8049 19.6809 19.7646 19.659C19.7243 19.637 19.689 19.6069 19.6611 19.5705C19.6332 19.534 19.6132 19.4922 19.6025 19.4475C19.5918 19.4029 19.5905 19.3565 19.5989 19.3114C19.6385 19.1027 19.6315 18.8878 19.5784 18.6821C19.5252 18.4764 19.4272 18.285 19.2914 18.1217C19.1556 17.9583 18.9853 17.827 18.7928 17.7372C18.6003 17.6474 18.3902 17.6013 18.1778 17.6021C18.1559 17.6021 18.1344 17.6037 18.1129 17.6052L18.1065 17.6057L18.0822 17.6074C17.997 17.6131 17.9129 17.5854 17.8479 17.53C17.7828 17.4747 17.742 17.3962 17.734 17.3111C17.6954 16.9117 17.5094 16.541 17.2122 16.2712C16.9151 16.0015 16.5282 15.852 16.1269 15.852C15.7256 15.852 15.3387 16.0015 15.0416 16.2712C14.7445 16.541 14.5585 16.9117 14.5199 17.3111C14.5118 17.3959 14.471 17.4742 14.4063 17.5295C14.3415 17.5847 14.2578 17.6127 14.1728 17.6074L14.1445 17.6055L14.1381 17.6051C14.1185 17.6037 14.0988 17.6023 14.0789 17.6023C13.6954 17.6027 13.3277 17.7552 13.0566 18.0264C12.7854 18.2976 12.6329 18.6652 12.6325 19.0487C12.6328 19.1368 12.6413 19.2247 12.6578 19.3112C12.6661 19.3563 12.6648 19.4027 12.6541 19.4474C12.6434 19.492 12.6234 19.5339 12.5954 19.5703C12.5675 19.6067 12.5322 19.6369 12.4919 19.6588C12.4516 19.6807 12.4071 19.694 12.3614 19.6976C12.0002 19.7286 11.6637 19.8935 11.418 20.16C11.1722 20.4264 11.035 20.7752 11.0333 21.1376C11.0333 21.1438 11.0338 21.1499 11.0342 21.156C11.0347 21.162 11.0352 21.168 11.0352 21.174L11.0374 21.2102C11.0412 21.2873 11.0177 21.3633 10.971 21.4247C10.9243 21.4862 10.8575 21.5293 10.7822 21.5464ZM11.2351 21.1662L11.2372 21.2004C11.2432 21.3245 11.2054 21.4467 11.1303 21.5457C11.0552 21.6446 10.9477 21.7139 10.8265 21.7414C10.629 21.7854 10.4467 21.8833 10.3013 22.0241C10.2207 22.1021 10.153 22.1916 10.1001 22.2893H12.5708C12.6743 21.9649 12.871 21.6766 13.138 21.4614C13.4474 21.212 13.8326 21.0757 14.2301 21.0751C14.3701 21.0751 14.5048 21.1307 14.6038 21.2298C14.7028 21.3288 14.7585 21.4631 14.7585 21.6032C14.7585 21.7433 14.7028 21.8776 14.6038 21.9766C14.5048 22.0757 14.3704 22.1313 14.2304 22.1313C14.2302 22.1313 14.2305 22.1313 14.2304 22.1313M11.2351 21.1662C11.2348 21.1553 11.2341 21.146 11.2337 21.1416L11.2336 21.1405C11.2335 21.1382 11.2334 21.1368 11.2333 21.136C11.2354 20.8244 11.3537 20.5247 11.565 20.2956C11.7768 20.0659 12.0667 19.9238 12.378 19.8969M12.8325 19.0483C12.833 18.718 12.9644 18.4014 13.198 18.1678C13.4317 17.9341 13.7486 17.8027 14.0791 17.8023C14.0917 17.8023 14.1041 17.8032 14.1256 17.8047L14.1307 17.805L14.1596 17.807C14.2964 17.8155 14.4319 17.7706 14.5361 17.6816C14.6403 17.5927 14.7058 17.4667 14.7189 17.3304C14.7528 16.9804 14.9157 16.6556 15.176 16.4193C15.4363 16.1829 15.7753 16.052 16.1269 16.052C16.4785 16.052 16.8175 16.1829 17.0778 16.4193C17.338 16.6556 17.501 16.9803 17.5349 17.3301M19.8783 19.8971C20.1896 19.9239 20.4797 20.0661 20.6916 20.2958C20.9033 20.5253 21.0216 20.8257 21.0234 21.1379L21.0233 21.1478L21.0226 21.1526L21.0197 21.1978L21.0195 21.201C21.0134 21.325 21.0512 21.4472 21.1262 21.5461C21.2013 21.645 21.3088 21.7144 21.4298 21.742L21.4308 21.7422C21.6283 21.7861 21.8098 21.8839 21.9552 22.0246C22.0358 22.1026 22.1035 22.1922 22.1564 22.2899L13.794 22.2894C13.8108 22.2754 13.8283 22.2622 13.8465 22.2499C13.9598 22.1729 14.0934 22.1316 14.2304 22.1313M16.7322 1.7107H2.72717V2.60201H16.7322V1.7107ZM9.44032 21.398H2.72717V22.2893H8.97605C9.03221 22.0634 9.1249 21.8477 9.2508 21.651C9.3078 21.5619 9.37117 21.4774 9.44032 21.398ZM2.52717 21.198V22.4893H9.1388C9.18179 22.2293 9.27721 21.9807 9.41926 21.7588C9.5038 21.6266 9.60381 21.5056 9.7169 21.398C9.79383 21.3248 9.87682 21.2579 9.96511 21.198H2.52717ZM2.52717 1.5107V2.80201H16.9322V1.5107H2.52717Z" fill="#84BE51"/>
<path d="M3.83398 5.04376H6.56267C6.6497 5.04376 6.73316 5.00919 6.79469 4.94766C6.85623 4.88612 6.8908 4.80266 6.8908 4.71564C6.8908 4.62861 6.85623 4.54515 6.79469 4.48362C6.73316 4.42208 6.6497 4.38751 6.56267 4.38751H3.83398C3.74696 4.38751 3.6635 4.42208 3.60196 4.48362C3.54043 4.54515 3.50586 4.62861 3.50586 4.71564C3.50586 4.80266 3.54043 4.88612 3.60196 4.94766C3.6635 5.00919 3.74696 5.04376 3.83398 5.04376Z" fill="#84BE51"/>
<path fill-rule="evenodd" clip-rule="evenodd" d="M6.56248 5.24375H3.83379C3.69372 5.24375 3.55939 5.18811 3.46035 5.08907C3.3613 4.99002 3.30566 4.85569 3.30566 4.71562C3.30566 4.57556 3.36131 4.44123 3.46035 4.34218C3.55939 4.24314 3.69372 4.1875 3.83379 4.1875H6.56248C6.70254 4.1875 6.83687 4.24314 6.93592 4.34218C7.03496 4.44123 7.0906 4.57556 7.0906 4.71562C7.0906 4.85569 7.03496 4.99002 6.93592 5.08907C6.83687 5.18811 6.70254 5.24375 6.56248 5.24375ZM6.56248 5.04375H3.83379C3.74676 5.04375 3.6633 5.00918 3.60177 4.94764C3.54023 4.88611 3.50566 4.80265 3.50566 4.71562C3.50566 4.6286 3.54023 4.54514 3.60177 4.48361C3.6633 4.42207 3.74676 4.3875 3.83379 4.3875H6.56248C6.6495 4.3875 6.73296 4.42207 6.7945 4.48361C6.85603 4.54514 6.8906 4.6286 6.8906 4.71562C6.8906 4.80265 6.85603 4.88611 6.7945 4.94764C6.73296 5.00918 6.6495 5.04375 6.56248 5.04375Z" fill="#84BE51"/>
<path d="M7.87891 5.04376H8.62497C8.71199 5.04376 8.79545 5.00919 8.85699 4.94766C8.91852 4.88612 8.95309 4.80266 8.95309 4.71564C8.95309 4.62861 8.91852 4.54515 8.85699 4.48362C8.79545 4.42208 8.71199 4.38751 8.62497 4.38751H7.87891C7.79188 4.38751 7.70842 4.42208 7.64689 4.48362C7.58535 4.54515 7.55078 4.62861 7.55078 4.71564C7.55078 4.80266 7.58535 4.88612 7.64689 4.94766C7.70842 5.00919 7.79188 5.04376 7.87891 5.04376Z" fill="#84BE51"/>
<path fill-rule="evenodd" clip-rule="evenodd" d="M8.62477 5.24375H7.87871C7.73864 5.24375 7.60431 5.18811 7.50527 5.08907C7.40623 4.99002 7.35059 4.85569 7.35059 4.71562C7.35059 4.57556 7.40623 4.44123 7.50527 4.34218C7.60431 4.24314 7.73864 4.1875 7.87871 4.1875H8.62477C8.76484 4.1875 8.89917 4.24314 8.99821 4.34218C9.09726 4.44123 9.1529 4.57556 9.1529 4.71562C9.1529 4.85569 9.09726 4.99002 8.99821 5.08907C8.89917 5.18811 8.76484 5.24375 8.62477 5.24375ZM8.62477 5.04375H7.87871C7.79169 5.04375 7.70823 5.00918 7.64669 4.94764C7.58516 4.88611 7.55059 4.80265 7.55059 4.71562C7.55059 4.6286 7.58516 4.54514 7.64669 4.48361C7.70823 4.42207 7.79169 4.3875 7.87871 4.3875H8.62477C8.7118 4.3875 8.79526 4.42207 8.85679 4.48361C8.91833 4.54514 8.9529 4.6286 8.9529 4.71562C8.9529 4.80265 8.91833 4.88611 8.85679 4.94764C8.79526 5.00918 8.7118 5.04375 8.62477 5.04375Z" fill="#84BE51"/>
</svg>
