<svg width="24" height="22" viewBox="0 0 24 22" fill="none" xmlns="http://www.w3.org/2000/svg">
<path d="M19.7748 16.1734C19.6411 16.0325 19.4186 16.0267 19.2778 16.1604C17.6419 17.7125 15.7427 19.0926 14.4392 19.6762C13.1542 20.2521 11.7443 20.3749 10.3991 20.0398C11.0267 19.6756 11.5923 19.216 12.0758 18.6807C12.0758 18.6807 12.0759 18.6807 12.0759 18.6807C14.9105 18.3197 16.946 16.2751 17.0313 16.1882C17.1673 16.0496 17.1652 15.827 17.0266 15.691C16.888 15.555 16.6655 15.5571 16.5295 15.6957C16.5122 15.7133 14.9384 17.2945 12.7227 17.8447C13.4434 16.7516 13.8636 15.4437 13.8636 14.0393C13.8636 13.7872 13.8496 13.5052 13.8222 13.2008C13.8047 13.0074 13.6335 12.8655 13.4404 12.8823C13.2471 12.8998 13.1044 13.0707 13.1219 13.2641C13.1475 13.5474 13.1605 13.8082 13.1605 14.0393C13.1605 17.4738 10.3663 20.268 6.93183 20.268C3.49725 20.268 0.703125 17.4738 0.703125 14.0393C0.703125 12.1668 1.50122 8.99128 2.60072 6.48848C3.92873 3.46574 5.50734 1.73207 6.93178 1.73207C8.22492 1.73207 9.36619 3.10631 10.0958 4.25925C10.1997 4.42335 10.4169 4.4722 10.5809 4.36828C10.745 4.26445 10.7938 4.04728 10.69 3.88321C9.49134 1.98928 8.22684 1.0289 6.93183 1.0289C5.97487 1.0289 5.02397 1.56299 4.1055 2.61628C3.34106 3.49293 2.61825 4.70053 1.95703 6.20559C0.80475 8.82843 0 12.0497 0 14.0393C0 17.8615 3.10959 20.9711 6.93183 20.9711C7.82911 20.9711 8.68702 20.7997 9.47475 20.488C10.2615 20.7811 11.0791 20.9276 11.8953 20.9276C12.8592 20.9276 13.8209 20.7238 14.7267 20.3179C16.1177 19.695 18.047 18.2974 19.7618 16.6704C19.9026 16.5368 19.9085 16.3143 19.7748 16.1734Z" fill="white"/>
<path fill-rule="evenodd" clip-rule="evenodd" d="M19.9197 16.0357L19.9197 16.0358C20.1294 16.2567 20.1202 16.6058 19.8993 16.8155L19.8993 16.8155C18.1761 18.4504 16.228 19.8646 14.8083 20.5004C13.8768 20.9178 12.8874 21.1276 11.8951 21.1276C11.0798 21.1276 10.2635 20.9856 9.4767 20.7018C8.68565 21.0049 7.82754 21.1711 6.93163 21.1711C2.99894 21.1711 -0.200195 17.9719 -0.200195 14.0393C-0.200195 12.0126 0.614827 8.76304 1.77373 6.12513C2.44001 4.60854 3.17258 3.3816 3.95456 2.48482L4.1053 2.61626C3.34087 3.49292 2.61805 4.70051 1.95684 6.20558C0.804555 8.82842 -0.00019531 12.0497 -0.00019531 14.0393C-0.00019531 17.8615 3.1094 20.9711 6.93163 20.9711C7.82891 20.9711 8.68682 20.7997 9.47456 20.488C10.2613 20.7811 11.0789 20.9276 11.8951 20.9276C12.859 20.9276 13.8207 20.7238 14.7265 20.3179C16.1175 19.6949 18.0468 18.2974 19.7616 16.6704C19.9024 16.5368 19.9083 16.3143 19.7746 16.1734C19.6409 16.0325 19.4184 16.0267 19.2776 16.1604C17.6417 17.7125 15.7425 19.0926 14.439 19.6762C13.2438 20.2118 11.9405 20.3555 10.6816 20.1033C10.5871 20.0843 10.4928 20.0632 10.3989 20.0398C10.4815 19.9918 10.563 19.9423 10.6434 19.8911C11.1739 19.5534 11.6557 19.1455 12.0756 18.6807H12.0757C14.9103 18.3197 16.9458 16.2751 17.0311 16.1882C17.1671 16.0496 17.165 15.827 17.0264 15.691C16.8878 15.555 16.6653 15.5571 16.5293 15.6957C16.5127 15.7125 15.0728 17.1593 13.0092 17.7669C12.9149 17.7946 12.8193 17.8207 12.7225 17.8447C12.7763 17.7631 12.8284 17.6803 12.8788 17.5963C13.5036 16.5558 13.8634 15.3389 13.8634 14.0393C13.8634 13.7872 13.8494 13.5051 13.822 13.2008C13.8045 13.0074 13.6333 12.8655 13.4402 12.8823C13.2469 12.8998 13.1042 13.0707 13.1217 13.2641C13.1473 13.5474 13.1603 13.8082 13.1603 14.0393C13.1603 17.4738 10.3661 20.268 6.93163 20.268C3.49705 20.2679 0.70293 17.4738 0.70293 14.0393C0.70293 12.1668 1.50102 8.99127 2.60052 6.48847C3.92854 3.46573 5.50715 1.73206 6.93159 1.73206C8.22473 1.73206 9.36599 3.1063 10.0956 4.25923C10.1995 4.42334 10.4167 4.47219 10.5807 4.36826C10.7448 4.26444 10.7936 4.04726 10.6898 3.8832L10.8588 3.77625C11.0217 4.03362 10.9451 4.37428 10.6878 4.53719M10.6898 3.8832C9.49115 1.98926 8.22665 1.02889 6.93163 1.02889C5.97468 1.02889 5.02377 1.56298 4.1053 2.61626L3.95457 2.48482C4.89316 1.40845 5.89436 0.828888 6.93163 0.828888C8.33367 0.828888 9.65037 1.86686 10.8588 3.77625L10.6898 3.8832ZM12.9225 13.2821C12.8951 12.9786 13.1189 12.7105 13.4222 12.6831L13.423 12.683C13.7248 12.6569 13.9937 12.8787 14.0212 13.1828L14.0212 13.1828C14.0491 13.4919 14.0634 13.7801 14.0634 14.0393C14.0634 15.2985 13.735 16.4826 13.1597 17.5105C14.0291 17.225 14.7775 16.7936 15.3363 16.4061C15.6659 16.1776 15.9279 15.9656 16.1081 15.8101C16.1981 15.7324 16.2676 15.6689 16.3148 15.6247C16.3622 15.5802 16.3866 15.5555 16.3865 15.5556C16.5999 15.3381 16.9491 15.335 17.1665 15.5483L17.1665 15.5483C17.3839 15.7616 17.3872 16.1109 17.1738 16.3283L17.1738 16.3283C17.0842 16.4195 15.0417 18.474 12.1741 18.8694C11.8013 19.2737 11.3825 19.6349 10.9261 19.9446C12.0799 20.1345 13.2647 19.9833 14.3572 19.4937L14.3573 19.4937C15.6317 18.923 17.5121 17.5598 19.1399 16.0153C19.3609 15.8056 19.7099 15.8147 19.9197 16.0357M12.9225 13.2821C12.9477 13.5608 12.9603 13.8154 12.9603 14.0393C12.9603 17.3634 10.2557 20.068 6.93163 20.068C3.60751 20.0679 0.90293 17.3634 0.90293 14.0393C0.90293 12.2042 1.69057 9.05706 2.78363 6.56891C3.44251 5.06921 4.15868 3.90112 4.87778 3.11139C5.60058 2.3176 6.30164 1.93206 6.93159 1.93206C7.50653 1.93206 8.06882 2.23865 8.59063 2.7115C9.10995 3.1821 9.56652 3.79714 9.92665 4.36619L9.92666 4.3662C10.0895 4.62354 10.4303 4.70031 10.6877 4.53726" fill="white"/>
<path d="M23.7652 8.67198C23.1802 7.36633 21.475 6.55239 18.8339 6.3182C16.8611 6.14322 14.3806 6.30751 12.1392 6.75714C11.922 6.22548 11.6917 5.7153 11.4524 5.23937C11.3651 5.06589 11.1539 4.99595 10.9803 5.08323C10.8068 5.17042 10.7369 5.38178 10.8242 5.55522C11.7425 7.38128 12.5251 9.7278 12.9176 11.832C12.9492 12.0011 13.0968 12.1192 13.2628 12.1192C13.2842 12.1192 13.3059 12.1172 13.3277 12.1132C13.5186 12.0775 13.6445 11.8939 13.6089 11.7031C13.4888 11.0593 13.3329 10.3933 13.1486 9.72578C16.9545 8.37123 19.8081 9.00827 19.8365 9.01483C20.0255 9.05945 20.2148 8.94222 20.2594 8.75327C20.3039 8.56427 20.1868 8.37498 19.9978 8.33045C19.8724 8.30083 16.9427 7.63881 12.9523 9.04937C12.7847 8.4993 12.5992 7.95311 12.3997 7.42216C14.5455 7.00333 16.898 6.85239 18.7718 7.01851C20.4261 7.16519 22.5239 7.621 23.1236 8.95942C23.7321 10.3173 22.7015 12.5689 20.2962 15.1367C20.1634 15.2784 20.1707 15.5009 20.3124 15.6336C20.3802 15.6971 20.4665 15.7286 20.5527 15.7286C20.6465 15.7286 20.7401 15.6912 20.8093 15.6174C22.3423 13.9809 24.7648 10.9025 23.7652 8.67198Z" fill="white"/>
<path fill-rule="evenodd" clip-rule="evenodd" d="M11.4522 5.23935C11.6915 5.71527 11.9219 6.22546 12.1391 6.75711C14.3804 6.30749 16.8609 6.14319 18.8337 6.31818C21.4748 6.55236 23.18 7.3663 23.765 8.67196C24.7646 10.9025 22.3421 13.9809 20.8091 15.6173C20.74 15.6912 20.6463 15.7286 20.5525 15.7286C20.4663 15.7286 20.3801 15.6971 20.3122 15.6336C20.1705 15.5008 20.1633 15.2783 20.296 15.1367C22.7014 12.5689 23.7319 10.3173 23.1234 8.95939C22.5237 7.62097 20.4259 7.16516 18.7717 7.01849C16.9557 6.85749 14.6902 6.99428 12.5989 7.3841C12.5323 7.39652 12.4658 7.4092 12.3995 7.42213C12.4233 7.48526 12.4468 7.54861 12.4701 7.61215C12.6202 8.02103 12.7618 8.43803 12.8931 8.85809C12.913 8.92178 12.9327 8.98554 12.9521 9.04935C13.0154 9.02697 13.0784 9.00512 13.1412 8.98377C17.0348 7.65963 19.8742 8.30127 19.9976 8.33043C20.1866 8.37496 20.3037 8.56424 20.2592 8.75324C20.2147 8.94219 20.0253 9.05943 19.8364 9.0148C19.8079 9.00824 16.9543 8.37121 13.1484 9.72575C13.3327 10.3933 13.4886 11.0593 13.6087 11.7031C13.6443 11.8939 13.5184 12.0775 13.3276 12.1131C13.3058 12.1172 13.2841 12.1191 13.2627 12.1191C13.0967 12.1191 12.949 12.0011 12.9175 11.832C12.5249 9.72777 11.7424 7.38125 10.824 5.55519C10.7368 5.38175 10.8067 5.17039 10.9802 5.08321C11.1537 4.99593 11.3649 5.06586 11.4522 5.23935ZM10.6454 5.64506C11.5548 7.45354 12.3316 9.78205 12.7209 11.8687L12.7209 11.8687C12.7704 12.1341 13.0021 12.3191 13.2627 12.3191C13.2961 12.3191 13.3301 12.3161 13.3643 12.3097M10.8903 4.90453C10.6181 5.04137 10.5085 5.37296 10.6453 5.64505ZM13.3644 12.3097C13.6637 12.2538 13.8612 11.9658 13.8053 11.6664L13.8053 11.6664C13.695 11.0747 13.5547 10.465 13.3904 9.8531C15.196 9.23473 16.7729 9.06867 17.9105 9.05986C18.4976 9.05531 18.9674 9.09264 19.2909 9.13123C19.4526 9.15052 19.5777 9.17011 19.6625 9.18493C19.7441 9.19917 19.7881 9.20893 19.7913 9.20964C20.0876 9.27916 20.3841 9.09519 20.4539 8.79912L20.4539 8.79911C20.5237 8.50259 20.34 8.20569 20.0436 8.13578M13.0822 8.7926C12.9537 8.38212 12.8156 7.97452 12.6693 7.57444C14.7361 7.19223 16.9686 7.05942 18.754 7.21771C19.5731 7.29033 20.4911 7.4388 21.2733 7.72951C22.0605 8.02202 22.6736 8.44464 22.9409 9.04117L22.9409 9.04118C23.2105 9.64274 23.1307 10.4785 22.6581 11.5111C22.188 12.5382 21.3442 13.7251 20.1501 14.9999M20.9551 15.754C21.7263 14.9308 22.7287 13.7374 23.4131 12.462C24.0925 11.1957 24.4871 9.7942 23.9475 8.59017C23.3143 7.17688 21.5035 6.35412 18.8514 6.11896C16.9042 5.94625 14.4756 6.10051 12.2614 6.52916C12.061 6.0479 11.8498 5.58481 11.6309 5.14949L11.6309 5.14946C11.494 4.87741 11.1626 4.7676 10.8904 4.90451M20.9551 15.7541C20.8466 15.87 20.6993 15.9286 20.5525 15.9286C20.4176 15.9286 20.2818 15.8792 20.1755 15.7796L20.1755 15.7796C19.9532 15.5713 19.9418 15.2222 20.15 14.9999" fill="white"/>
<path d="M19.0032 12.1296C18.9176 11.9552 18.7069 11.8834 18.5326 11.9691L14.4417 13.9796C14.2675 14.0652 14.1956 14.2759 14.2812 14.4501C14.3424 14.5746 14.4672 14.6468 14.597 14.6468C14.6491 14.6468 14.7019 14.6352 14.7518 14.6106L18.8427 12.6001C19.017 12.5145 19.0888 12.3038 19.0032 12.1296Z" fill="white"/>
<path fill-rule="evenodd" clip-rule="evenodd" d="M18.5325 11.969C18.7067 11.8834 18.9174 11.9552 19.003 12.1295C19.0887 12.3038 19.0168 12.5145 18.8426 12.6001L14.7517 14.6106C14.7018 14.6351 14.6489 14.6468 14.5969 14.6468C14.467 14.6468 14.3422 14.5746 14.2811 14.4501C14.1954 14.2759 14.2673 14.0652 14.4415 13.9795L18.5325 11.969ZM14.8399 14.7901C14.8399 14.7901 14.8399 14.7901 14.8399 14.7901C14.762 14.8284 14.6789 14.8468 14.5969 14.8468C14.3937 14.8468 14.1976 14.7338 14.1016 14.5383L14.2808 14.4503L14.1016 14.5383C14.1016 14.5383 14.1016 14.5383 14.1016 14.5383C13.9672 14.2649 14.08 13.9344 14.3533 13.8L14.3533 13.8L18.4443 11.7895L18.4443 11.7895C18.7177 11.6552 19.0482 11.7678 19.1826 12.0413C19.3169 12.3147 19.2041 12.6452 18.9308 12.7796L18.9308 12.7796L14.8399 14.7901Z" fill="white"/>
<path d="M5.57206 4.26144C5.41779 4.14355 5.19715 4.17308 5.07926 4.32726C5.04429 4.37301 4.21587 5.47016 3.56417 7.47313C2.96665 9.30946 2.41264 12.292 3.16625 16.0724C3.19958 16.2396 3.34643 16.3553 3.51068 16.3552C3.53347 16.3552 3.55657 16.353 3.57978 16.3484C3.77018 16.3104 3.89379 16.1253 3.85582 15.9349C3.13508 12.3197 3.65731 9.47371 4.22234 7.72288C4.83546 5.82308 5.63023 4.76437 5.6382 4.75387C5.75576 4.5996 5.72618 4.37924 5.57206 4.26144Z" fill="white"/>
<path fill-rule="evenodd" clip-rule="evenodd" d="M5.69331 4.10253L5.69332 4.10254C5.93502 4.28728 5.98149 4.63279 5.7973 4.8748L5.79728 4.87483C5.79029 4.88417 5.01356 5.92184 4.41249 7.78431C3.85594 9.50882 3.33886 12.3198 4.05178 15.8958C4.11134 16.1945 3.91746 16.4849 3.61881 16.5445C3.61878 16.5445 3.61874 16.5445 3.6187 16.5445L3.57959 16.3484C3.77 16.3104 3.8936 16.1253 3.85564 15.9349C3.13489 12.3197 3.65712 9.47371 4.22215 7.72288C4.83528 5.82308 5.63004 4.76436 5.63801 4.75386C5.75557 4.5996 5.72599 4.37924 5.57187 4.26144C5.4176 4.14355 5.19696 4.17308 5.07907 4.32726C5.0441 4.37301 4.21568 5.47016 3.56398 7.47313C2.96646 9.30946 2.41245 12.292 3.16606 16.0724C3.19939 16.2396 3.34625 16.3553 3.5105 16.3552C3.53328 16.3552 3.55639 16.353 3.57959 16.3484M4.92017 4.2058L4.9202 4.20577C5.10514 3.96391 5.45126 3.91756 5.69331 4.10253M3.15345 16.0749L2.96992 16.1115C2.20842 12.2915 2.76773 9.27385 3.37379 7.41125C4.03414 5.38172 4.87515 4.2647 4.92017 4.2058M3.5105 16.5552C3.25269 16.5553 3.02225 16.374 2.96992 16.1115L3.15345 16.0749" fill="white"/>
<path d="M11.5963 13.1389C11.527 11.5148 11.057 10.2986 11.037 10.2476C10.9662 10.0669 10.7625 9.978 10.5818 10.0485C10.4011 10.1192 10.3118 10.323 10.3822 10.5038C10.3867 10.5154 10.8339 11.6785 10.8947 13.1902C10.9748 15.179 10.3825 16.805 9.13433 18.0231C8.99539 18.1587 8.99267 18.3812 9.12828 18.5202C9.19723 18.5908 9.28854 18.6263 9.37995 18.6263C9.4685 18.6263 9.55709 18.593 9.62548 18.5263C11.0077 17.1773 11.6892 15.3144 11.5963 13.1389Z" fill="white"/>
<path fill-rule="evenodd" clip-rule="evenodd" d="M10.5816 10.0485C10.7623 9.97795 10.9661 10.0669 11.0368 10.2475C11.0568 10.2985 11.5268 11.5147 11.5961 13.1389C11.6891 15.3144 11.0075 17.1773 9.62528 18.5262C9.55689 18.593 9.4683 18.6262 9.37975 18.6262C9.28835 18.6262 9.19703 18.5908 9.12808 18.5201C8.99247 18.3812 8.99519 18.1586 9.13413 18.023C10.3823 16.8049 10.9746 15.1789 10.8945 13.1901C10.8337 11.6785 10.3865 10.5153 10.382 10.5038C10.3116 10.323 10.4009 10.1191 10.5816 10.0485ZM10.1956 10.5762C10.0852 10.2927 10.2252 9.97305 10.5088 9.86222C10.7921 9.75162 11.1119 9.89095 11.223 10.1746V10.1746M10.1956 10.5762C10.1967 10.5791 10.3063 10.8641 10.4231 11.3328C10.5407 11.8045 10.6649 12.4593 10.6947 13.1982C10.7728 15.1392 10.1961 16.7072 8.99444 17.8799C8.77647 18.0926 8.77218 18.4418 8.98495 18.6598C9.09303 18.7706 9.23663 18.8262 9.37975 18.8262C9.5184 18.8262 9.65775 18.774 9.76498 18.6694V18.6694M11.796 13.1304C11.7254 11.4761 11.2476 10.2371 11.223 10.1746Z" fill="white"/>
<path d="M8.50371 7.12721C8.49682 6.93315 8.33426 6.78291 8.13987 6.78835C7.94585 6.79524 7.79412 6.95813 7.80101 7.1522L7.96296 11.7076C7.96976 11.8974 8.12571 12.0467 8.3141 12.0467C8.31832 12.0467 8.32259 12.0466 8.3268 12.0465C8.52082 12.0396 8.67255 11.8767 8.66566 11.6827L8.50371 7.12721Z" fill="white"/>
<path fill-rule="evenodd" clip-rule="evenodd" d="M8.13967 6.78835C8.33406 6.78291 8.49663 6.93314 8.50352 7.1272L8.66547 11.6827C8.67236 11.8767 8.52063 12.0396 8.32661 12.0465L8.31391 12.0467C8.12552 12.0467 7.96956 11.8974 7.96277 11.7076L7.80081 7.15219C7.79392 6.95813 7.94566 6.79524 8.13967 6.78835ZM8.70339 7.12011L8.86534 11.6756C8.87615 11.98 8.63812 12.2356 8.33371 12.2464C8.32805 12.2466 8.32101 12.2467 8.31391 12.2467C8.01818 12.2467 7.77356 12.0125 7.76289 11.7148L7.60094 7.15929C7.59013 6.85485 7.82817 6.59928 8.13257 6.58847L8.13408 6.58842C8.43641 6.57996 8.69253 6.81438 8.70339 7.12011C8.70339 7.12011 8.70339 7.1201 8.70339 7.12011Z" fill="white"/>
<path d="M5.95672 18.5104C5.16298 18.2216 4.48611 17.4848 4.475 17.4725C4.34483 17.3287 4.12264 17.3174 3.97864 17.4476C3.83459 17.5778 3.82334 17.8001 3.95351 17.9441C3.98572 17.9798 4.75306 18.8207 5.7163 19.1711C5.756 19.1856 5.79655 19.1924 5.83648 19.1924C5.98011 19.1924 6.11492 19.1037 6.16686 18.961C6.23328 18.7785 6.13916 18.5768 5.95672 18.5104Z" fill="white"/>
<path fill-rule="evenodd" clip-rule="evenodd" d="M4.62306 17.3382L4.62313 17.3383L4.62315 17.3383C4.62425 17.3395 4.66555 17.3846 4.73886 17.4559C4.8131 17.5281 4.91939 17.6265 5.0492 17.7333M6.02491 18.3225C6.31109 18.4266 6.45881 18.743 6.35462 19.0293C6.27303 19.2536 6.06133 19.3924 5.83629 19.3924C5.77356 19.3924 5.70984 19.3817 5.64772 19.3591C4.63504 18.9907 3.83982 18.1169 3.80493 18.0782M5.7161 19.1711C4.75287 18.8207 3.98552 17.9798 3.95332 17.9441C3.82315 17.8001 3.8344 17.5778 3.97845 17.4476C4.12245 17.3174 4.34463 17.3287 4.47481 17.4725C4.48591 17.4848 5.16279 18.2216 5.95652 18.5104C6.13896 18.5768 6.23309 18.7785 6.16666 18.9609C6.11473 19.1037 5.97991 19.1924 5.83629 19.1924C5.79635 19.1924 5.75581 19.1856 5.7161 19.1711ZM4.62306 17.3382C4.41888 17.1127 4.07034 17.0949 3.84435 17.2992ZM3.84433 17.2992C3.61838 17.5034 3.60071 17.8522 3.80487 18.0782Z" fill="white"/>
<path d="M8.51318 12.7461C8.31903 12.7461 8.16162 12.9035 8.16162 13.0977V13.1296C8.16162 13.3238 8.31903 13.4811 8.51318 13.4811C8.70734 13.4811 8.86475 13.3238 8.86475 13.1296V13.0977C8.86475 12.9035 8.70734 12.7461 8.51318 12.7461Z" fill="white"/>
<path fill-rule="evenodd" clip-rule="evenodd" d="M7.96143 13.0976C7.96143 12.793 8.20839 12.5461 8.51299 12.5461C8.81758 12.5461 9.06455 12.793 9.06455 13.0976V13.1296C9.06455 13.4342 8.81758 13.6811 8.51299 13.6811C8.20839 13.6811 7.96143 13.4342 7.96143 13.1296V13.0976ZM8.16143 13.0976C8.16143 12.9034 8.31883 12.7461 8.51299 12.7461C8.70714 12.7461 8.86455 12.9034 8.86455 13.0976V13.1296C8.86455 13.3238 8.70714 13.4811 8.51299 13.4811C8.31883 13.4811 8.16143 13.3238 8.16143 13.1296V13.0976Z" fill="white"/>
<path d="M7.64648 13.6724C7.45233 13.6724 7.29492 13.8297 7.29492 14.0239V14.0558C7.29492 14.2501 7.45233 14.4074 7.64648 14.4074C7.84064 14.4074 7.99805 14.2501 7.99805 14.0558V14.0239C7.99805 13.8298 7.84069 13.6724 7.64648 13.6724Z" fill="white"/>
<path fill-rule="evenodd" clip-rule="evenodd" d="M7.09473 14.0239C7.09473 13.7192 7.34169 13.4724 7.64629 13.4724C7.95097 13.4724 8.19785 13.7193 8.19785 14.0239V14.0558C8.19785 14.3605 7.95088 14.6074 7.64629 14.6074C7.34169 14.6074 7.09473 14.3605 7.09473 14.0558V14.0239ZM7.29473 14.0239C7.29473 13.8297 7.45213 13.6724 7.64629 13.6724C7.84049 13.6724 7.99785 13.8298 7.99785 14.0239V14.0558C7.99785 14.25 7.84045 14.4074 7.64629 14.4074C7.45213 14.4074 7.29473 14.25 7.29473 14.0558V14.0239Z" fill="white"/>
<path d="M8.76465 15.247C8.57049 15.247 8.41309 15.4044 8.41309 15.5986V15.6305C8.41309 15.8247 8.57049 15.9821 8.76465 15.9821C8.9588 15.9821 9.11621 15.8247 9.11621 15.6305V15.5986C9.11621 15.4044 8.9588 15.247 8.76465 15.247Z" fill="white"/>
<path fill-rule="evenodd" clip-rule="evenodd" d="M8.21289 15.5986C8.21289 15.2939 8.45986 15.047 8.76445 15.047C9.06905 15.047 9.31602 15.2939 9.31602 15.5986V15.6305C9.31602 15.9352 9.06905 16.182 8.76445 16.182C8.45984 16.182 8.21289 15.9351 8.21289 15.6305V15.5986ZM8.41289 15.5986C8.41289 15.4044 8.5703 15.247 8.76445 15.247C8.95861 15.247 9.11602 15.4044 9.11602 15.5986V15.6305C9.11602 15.8247 8.95861 15.982 8.76445 15.982C8.5703 15.982 8.41289 15.8246 8.41289 15.6305V15.5986Z" fill="white"/>
</svg>
